# xmcd
#
# Track frame offsets: 
#        150
#        16774
#        43262
#        57011
#        67218
#        83590
#        96435
#        110243
#        130596
#        143572
#        152571
#        165113
#        177829
#        194073
#        206676
#        225366
#        239545
#
# Disc length: 3371 seconds
#
# Revision: 2
# Processed by: cddbd v1.5.2PL0 Copyright (c) Steve Scherf et al.
# Submitted via: ExactAudioCopyFreeDBPlugin 1.0
#
DISCID=e10d2911
DTITLE=Ray Charles - Singles Collection, 1949-1962, Plus Modern Sounds
DTITLE=in Country and Western Music, Volumes 1 and 2 [Real Gone Music]
DYEAR=2014
DGENRE=Rhythm and Blues
TTITLE0=Come Rain or Come Shine
TTITLE1=Doodlin', Parts 1 and 2
TTITLE2=My Baby (I Love Her Yes I Do)
TTITLE3=Sticks and Stones
TTITLE4=Georgia on My Mind
TTITLE5=Them That Got
TTITLE6=One Mind Julep
TTITLE7=I've Got News for You
TTITLE8=Ruby
TTITLE9=Hit the Road Jack
TTITLE10=Early in the Mornin'
TTITLE11=Unchain My Heart
TTITLE12=Am I Blue
TTITLE13=I Wonder Who
TTITLE14=Baby It's Cold Outside
TTITLE15=Hide Nor' Hair
TTITLE16=At the Club
EXTD=
EXTT0=
EXTT1=
EXTT2=
EXTT3=
EXTT4=
EXTT5=
EXTT6=
EXTT7=
EXTT8=
EXTT9=
EXTT10=
EXTT11=
EXTT12=
EXTT13=
EXTT14=
EXTT15=
EXTT16=
PLAYORDER=
